<svg xmlns="http://www.w3.org/2000/svg" width="24" height="24" viewBox="0 0 24 24">
    <path fill="#5FD8E0" fill-rule="evenodd" d="M12 19.789v1.198h2.41a.6.6 0 0 0 0-1.198H12zm0-1.199h.01a.6.6 0 0 0 0-1.198H12v1.198zm0-2.396h3.61a.6.6 0 1 0 0-1.198H12v1.198zm0-2.397h4.21a.6.6 0 1 0 0-1.198H12v1.198zm0-2.396h.61a.6.6 0 0 0 0-1.198H12V11.4zm0-2.397h3.61a.6.6 0 1 0 0-1.198H12v1.198zm0-2.396H13.209a.6.6 0 0 0 0-1.198H12v1.198zm0-2.397h2.41a.6.6 0 0 0 0-1.198H12v1.198zM12 0c.912-.003 1.985.202 3.21.617h-2.003a.6.6 0 1 0 0 1.198h4.802l.034-.001c.712.352 1.46.756 2.241 1.212a.6.6 0 0 0 .123 1.185h1.81A65.45 65.45 0 0 1 24 5.401l-.004.009h-2.989a.6.6 0 0 0 0 1.198h2.525l-.464 1.198h-5.06a.6.6 0 1 0 0 1.198h4.596l-.464 1.199h-2.333a.6.6 0 0 0 0 1.198h1.869l-.464 1.198h-2.605a.6.6 0 0 0 0 1.198h2.14l-1.391 3.595h-1.349a.6.6 0 1 0 0 1.198h.885l-.155.4c-.054.139-.082.287-.082.436v.363h-1.848a.6.6 0 0 0 0 1.198h1.848v.989c0 .07-.006.14-.018.21h-2.43a.6.6 0 0 0 0 1.198h.77c-1.496.41-3.203.616-4.977.616-2.136 0-4.156-.297-5.849-.89a1.2 1.2 0 0 1-.799-1.134v-2.55c0-.15-.027-.297-.081-.437L0 5.4C5.239 1.791 9.31-.009 12 0zm.608 22.784c0 .331.269.6.6.6h.601a.6.6 0 0 0 0-1.199h-.602a.6.6 0 0 0-.599.6zm1.2-4.793c0 .331.269.6.6.6h1.201a.6.6 0 0 0 0-1.199h-1.202a.6.6 0 0 0-.599.6zm3.6-2.396c0 .33.269.599.6.599h1.201a.6.6 0 0 0 0-1.198h-1.202a.6.6 0 0 0-.599.599zm-2.4-9.586c0 .33.269.599.6.599h3.001a.6.6 0 0 0 0-1.198h-3.002a.6.6 0 0 0-.599.599zm1.2-2.397c0 .331.269.6.6.6h1.201a.6.6 0 0 0 0-1.199h-1.202a.6.6 0 0 0-.599.6zm1.8 7.19a.6.6 0 0 0-.599-.6h-2.402a.6.6 0 0 0 0 1.199h2.402a.6.6 0 0 0 .6-.6z"/>
</svg>
